<?xml version="1.0" encoding="UTF-8"?>
<svg version="1.1" xmlns="http://www.w3.org/2000/svg" width="500" height="500">
<path d="M0 0 C5.24151096 4.19320877 8.10748852 9.91999463 11.375 15.6875 C11.9829541 16.74549805 12.5909082 17.80349609 13.21728516 18.89355469 C14.50348114 21.13279326 15.78645415 23.37388578 17.06640625 25.61669922 C18.92966183 28.87692596 20.80568424 32.12936352 22.6875 35.37890625 C29.61935575 47.35119167 36.49165269 59.35688835 43.34561157 71.37384033 C47.58563467 78.80536165 51.86066216 86.21348122 56.2175293 93.57714844 C66.14755129 110.38022707 75.79353796 127.35264849 85.45751953 144.30981445 C88.50328737 149.65035508 91.56561562 154.97953489 94.671875 160.28515625 C97.43369375 165.00817663 100.11778121 169.76636434 102.75 174.5625 C106.90788329 182.10980211 111.20273195 189.57024821 115.59667969 196.98266602 C116.04172852 197.74119873 116.48677734 198.49973145 116.9453125 199.28125 C117.34250488 199.95220703 117.73969727 200.62316406 118.14892578 201.31445312 C119 203 119 203 119 205 C119.66 205 120.32 205 121 205 C121.38478516 205.82177734 121.38478516 205.82177734 121.77734375 206.66015625 C124.56086279 212.42400881 127.68637752 217.90074378 131.01098633 223.36816406 C134.80664632 229.63088943 138.47182077 235.96579948 142.125 242.3125 C142.76542236 243.4247998 143.40584473 244.53709961 144.06567383 245.68310547 C145.38546838 247.97650822 146.70488186 250.2701303 148.02392578 252.56396484 C151.19987778 258.08637013 154.38038282 263.60614533 157.5625 269.125 C158.17319336 270.18436768 158.78388672 271.24373535 159.41308594 272.33520508 C164.4775913 281.11247711 169.5786225 289.86811807 174.69750977 298.61376953 C175.24850342 299.55591309 175.79949707 300.49805664 176.3671875 301.46875 C176.85300293 302.29826172 177.33881836 303.12777344 177.83935547 303.98242188 C180.13642947 307.97548447 180.65785058 311.42135993 180 316 C178.20636089 318.8100346 176.98119065 320.50940468 174 322 C172.06137165 322.11682364 170.11876496 322.16972218 168.17675781 322.19287109 C166.3441037 322.21696548 166.3441037 322.21696548 164.47442627 322.24154663 C163.13399959 322.253035 161.79356513 322.26364339 160.453125 322.2734375 C159.77842918 322.27876118 159.10373337 322.28408485 158.40859222 322.28956985 C154.83555742 322.31629844 151.26255747 322.33567186 147.68945312 322.35009766 C144.73666311 322.36342413 141.78456631 322.39125092 138.83203125 322.43212891 C135.26347771 322.48153418 131.69555177 322.50622829 128.12667084 322.51332474 C126.11142052 322.52327313 124.09633713 322.55749981 122.08135986 322.59213257 C111.87158809 322.56855938 111.87158809 322.56855938 108.33496094 319.80175781 C106.1282314 317.15386696 104.26499343 314.64319137 102.5625 311.6484375 C101.97726562 310.63136719 101.39203125 309.61429687 100.7890625 308.56640625 C99.90347656 306.98666016 99.90347656 306.98666016 99 305.375 C98.40960938 304.34503906 97.81921875 303.31507813 97.2109375 302.25390625 C94.40417179 297.3389751 91.66035845 292.39256537 88.9609375 287.41796875 C85.42654232 280.90575756 81.70448811 274.50409249 77.97265625 268.10351562 C77.45832031 267.21212891 76.94398438 266.32074219 76.4140625 265.40234375 C75.9495166 264.60304443 75.4849707 263.80374512 75.00634766 262.98022461 C74 261 74 261 74 259 C70.14676573 261.12923819 67.21520104 263.56459684 64.0625 266.625 C46.54733144 282.71179251 23.80479102 292.08589602 0 293 C-1.10021484 293.07734375 -1.10021484 293.07734375 -2.22265625 293.15625 C-26.25113289 294.14541542 -50.94329628 284.55732947 -69 269 C-71.74677935 266.37942402 -74.41911853 263.71587571 -77.0390625 260.96875 C-78.84877246 258.94306661 -78.84877246 258.94306661 -81 258 C-81.39155273 259.30372559 -81.39155273 259.30372559 -81.79101562 260.63378906 C-83.00601099 264.01673659 -84.48521892 266.78827797 -86.34375 269.859375 C-87.00834229 270.96667969 -87.67293457 272.07398438 -88.35766602 273.21484375 C-88.70757599 273.79218262 -89.05748596 274.36952148 -89.41799927 274.96435547 C-91.24802471 277.98447812 -93.05965007 281.01558197 -94.87109375 284.046875 C-95.22968979 284.64624878 -95.58828583 285.24562256 -95.95774841 285.86315918 C-98.93314042 290.85184859 -101.77849695 295.90268673 -104.5625 301 C-113.71909341 317.71909341 -113.71909341 317.71909341 -118 322 C-120.83982849 322.25396729 -120.83982849 322.25396729 -124.51342773 322.25878906 C-125.51613205 322.26404602 -125.51613205 322.26404602 -126.53909302 322.26940918 C-128.75403152 322.27822852 -130.96865186 322.27237615 -133.18359375 322.265625 C-134.72054608 322.26697176 -136.25749799 322.26891238 -137.79444885 322.27142334 C-141.01836191 322.274375 -144.24216425 322.27007626 -147.46606445 322.26074219 C-151.60006002 322.24935713 -155.73379565 322.25590074 -159.86778164 322.26788712 C-163.04276997 322.27511279 -166.21769666 322.27281438 -169.39268684 322.26763153 C-170.9169321 322.26629649 -172.44118294 322.26793766 -173.96542168 322.27259064 C-176.09615788 322.27766649 -178.22647292 322.26993067 -180.35717773 322.25878906 C-181.57026108 322.25719788 -182.78334442 322.25560669 -184.03318787 322.25396729 C-187 322 -187 322 -190 320 C-191.00714085 316.65392812 -191.27774451 314.72943566 -190.0246582 311.43847656 C-189.51765381 310.59768555 -189.01064941 309.75689453 -188.48828125 308.890625 C-187.65031006 307.46073242 -187.65031006 307.46073242 -186.79541016 306.00195312 C-186.2029248 305.01130859 -185.61043945 304.02066406 -185 303 C-183.88297427 300.99832131 -182.77235437 298.99305527 -181.66796875 296.984375 C-170.99173319 277.83218699 -170.99173319 277.83218699 -165.32177734 268.52026367 C-162.22487169 263.42035251 -159.26182712 258.24893431 -156.3125 253.0625 C-152.00698671 245.49175474 -147.65055974 237.95339043 -143.25 230.4375 C-138.11122413 221.65622839 -133.03701953 212.83985658 -128 204 C-122.46907869 194.29441069 -116.89153382 184.61790775 -111.24072266 174.98144531 C-108.10465949 169.62868018 -105.00055696 164.25972076 -101.93359375 158.8671875 C-100.91221351 157.07669664 -99.89046263 155.28641766 -98.86868286 153.49615479 C-97.89864832 151.79155614 -96.9354421 150.08307743 -95.97241211 148.37451172 C-95.38081299 147.3382666 -94.78921387 146.30202148 -94.1796875 145.234375 C-93.66132324 144.31881836 -93.14295898 143.40326172 -92.60888672 142.45996094 C-90.94405961 139.91446808 -89.32562369 137.96049908 -87 136 C-83.625 135.625 -83.625 135.625 -80 137 C-78.57958984 138.89550781 -78.57958984 138.89550781 -77.2109375 141.328125 C-76.69321777 142.23320801 -76.17549805 143.13829102 -75.64208984 144.07080078 C-75.1002002 145.03743652 -74.55831055 146.00407227 -74 147 C-72.87649041 148.94096764 -71.75144853 150.88104901 -70.625 152.8203125 C-69.41595548 154.92146593 -68.20765152 157.02304563 -67 159.125 C-65.67626903 161.42476215 -64.35223105 163.72434186 -63.02734375 166.0234375 C-62.69322983 166.60323364 -62.35911591 167.18302979 -62.01487732 167.78039551 C-57.97138007 174.79147461 -53.88633265 181.77828271 -49.79907227 188.76391602 C-46.98035751 193.58609522 -44.18273386 198.41758094 -41.44140625 203.28417969 C-39.98235534 205.8687436 -38.49706166 208.43729593 -37 211 C-36.57976562 211.72058594 -36.15953125 212.44117188 -35.7265625 213.18359375 C-31.14172965 220.33777924 -23.68211073 224.50090945 -15.6015625 226.58984375 C-5.66811609 228.15592764 2.05323818 224.97510817 10.19140625 219.53515625 C16.83523291 214.37894163 21.49746645 206.31293016 23 198 C23.16729603 196.12957552 23.26544363 194.25230163 23.3125 192.375 C23.34988281 191.41335938 23.38726562 190.45171875 23.42578125 189.4609375 C22.34408673 180.66844809 17.49167937 172.92405135 13.125 165.375 C12.55692627 164.38137451 11.98885254 163.38774902 11.40356445 162.36401367 C6.79668947 154.32580241 2.12322382 146.32593298 -2.55834961 138.33105469 C-7.0678102 130.62390903 -11.51452999 122.88198464 -15.9375 115.125 C-21.33778016 105.65718745 -26.74838658 96.19557016 -32.1875 86.75 C-32.79907959 85.68539551 -33.41065918 84.62079102 -34.04077148 83.52392578 C-34.61899658 82.52087402 -35.19722168 81.51782227 -35.79296875 80.484375 C-36.33614746 79.53755859 -36.87932617 78.59074219 -37.43896484 77.61523438 C-38.84765306 75.25522998 -40.3618207 73.02352104 -41.92578125 70.765625 C-44.38820418 66.82361723 -44.96273597 63.55837485 -44 59 C-42.96030671 56.20255709 -41.54072949 53.73752849 -40 51.1875 C-39.56647217 50.43903809 -39.13294434 49.69057617 -38.6862793 48.91943359 C-37.14273827 46.26829937 -35.57172676 43.63451771 -34 41 C-33.01789421 39.33501408 -32.03582991 37.67000329 -31.05496216 36.00428772 C-27.3600568 29.73022321 -23.64440968 23.46884546 -19.90087891 17.22363281 C-18.60470347 15.02549506 -17.33717244 12.81027466 -16.09521484 10.58105469 C-15.49016113 9.49985352 -14.88510742 8.41865234 -14.26171875 7.3046875 C-13.72893311 6.33257324 -13.19614746 5.36045898 -12.6472168 4.35888672 C-9.38134024 -0.31799179 -5.49504887 -0.67483056 0 0 Z " fill="#014FE9" transform="translate(255,89)"/>
<path d="M0 0 C2.72535098 3.28097282 5.03219711 6.55856932 7.14453125 10.26171875 C7.73129639 11.28499268 8.31806152 12.3082666 8.92260742 13.36254883 C9.85810425 15.00839966 9.85810425 15.00839966 10.8125 16.6875 C11.4752226 17.84620174 12.13839827 19.00464444 12.80200195 20.1628418 C14.18124399 22.57079925 15.55852964 24.97986026 16.93457031 27.38964844 C20.16508651 33.04238801 23.42898894 38.67587123 26.6875 44.3125 C31.8114323 53.18763296 36.92679121 62.06774062 41.97827148 70.984375 C44.02543861 74.59106944 46.08295033 78.17626071 48.296875 81.68359375 C54.2945512 91.29187103 54.2945512 91.29187103 53 98 C51.20636089 100.8100346 49.98119065 102.50940468 47 104 C45.06137165 104.11682364 43.11876496 104.16972218 41.17675781 104.19287109 C39.3441037 104.21696548 39.3441037 104.21696548 37.47442627 104.24154663 C36.13399959 104.253035 34.79356513 104.26364339 33.453125 104.2734375 C32.44108128 104.28142302 32.44108128 104.28142302 31.40859222 104.28956985 C27.83555742 104.31629844 24.26255747 104.33567186 20.68945312 104.35009766 C17.73666311 104.36342413 14.78456631 104.39125092 11.83203125 104.43212891 C8.26347771 104.48153418 4.69555177 104.50622829 1.12667084 104.51332474 C-0.88857948 104.52327313 -2.90366287 104.55749981 -4.91864014 104.59213257 C-15.12839578 104.56855942 -15.12839578 104.56855942 -18.64746094 101.81494141 C-22.5230067 97.17763935 -25.47349472 92.21854202 -28.5 87 C-29.48613281 85.37964844 -29.48613281 85.37964844 -30.4921875 83.7265625 C-31.10320312 82.68242187 -31.71421875 81.63828125 -32.34375 80.5625 C-32.90255859 79.61503906 -33.46136719 78.66757812 -34.03710938 77.69140625 C-35 75 -35 75 -34.29296875 72.30029297 C-32.69987859 69.46606044 -30.78125454 67.44235034 -28.5 65.125 C-12.83056349 48.25717946 -2.07792908 26.8918315 -1.17578125 3.66796875 C-1 1 -1 1 0 0 Z " fill="#0350E9" transform="translate(382,307)"/>
<path d="M0 0 C2.28528406 2.11195159 3.7620959 4.12249585 5.21484375 6.8671875 C7.29688626 10.71947282 9.43815089 14.52859871 11.62890625 18.3203125 C12.27150391 19.43277344 12.91410156 20.54523438 13.57617188 21.69140625 C14.23166016 22.82449219 14.88714844 23.95757812 15.5625 25.125 C17.49106316 28.46181016 19.41940584 31.79873152 21.34423828 35.13769531 C22.3405529 36.86001802 23.34240066 38.57918151 24.35498047 40.29199219 C27 44.79073636 27 44.79073636 27 47 C27.66 47 28.32 47 29 47 C29.82011312 48.55851755 30.63076213 50.12201716 31.4375 51.6875 C31.88996094 52.55761719 32.34242188 53.42773438 32.80859375 54.32421875 C37.75648286 65.43669101 33.74109048 78.84210185 29.86132812 89.78857422 C23.39432233 106.39235498 12.51953772 120.48046228 0 133 C-4.75054786 126.04336672 -9.18791268 118.92311154 -13.5 111.6875 C-14.15742188 110.61693359 -14.81484375 109.54636719 -15.4921875 108.44335938 C-16.10320312 107.41404297 -16.71421875 106.38472656 -17.34375 105.32421875 C-17.90255859 104.39697998 -18.46136719 103.46974121 -19.03710938 102.5144043 C-20 100 -20 100 -19.27001953 97.84350586 C-18.85091309 97.23514893 -18.43180664 96.62679199 -18 96 C-17.45085937 95.06929688 -16.90171875 94.13859375 -16.3359375 93.1796875 C-15.36527344 91.54386719 -15.36527344 91.54386719 -14.375 89.875 C2.11565834 61.33611136 7.89944283 32.12675185 0 0 Z " fill="#003C9C" transform="translate(347,247)"/>
<path d="M0 0 C2.51456129 2.43988005 4.38504043 4.89649661 6.25 7.875 C7.06210938 9.13957031 7.06210938 9.13957031 7.890625 10.4296875 C9.26069954 13.60401513 8.93122079 14.70662911 8 18 C7.03374458 19.95870085 5.98944491 21.87973692 4.89453125 23.76953125 C4.24677734 24.89520508 3.59902344 26.02087891 2.93164062 27.18066406 C2.2254379 28.39137959 1.5190538 29.60198933 0.8125 30.8125 C0.09382372 32.0553304 -0.624269 33.29849842 -1.34179688 34.54199219 C-3.18701741 37.73530496 -5.04100479 40.92342252 -6.89837646 44.10968018 C-7.97605412 45.95891031 -9.05205445 47.80910494 -10.12744141 49.65966797 C-14.07229455 56.44720686 -18.02910219 63.22766386 -22 70 C-25.41059403 68.39464713 -27.61792484 66.59481099 -30.25 63.875 C-30.95640625 63.15054688 -31.6628125 62.42609375 -32.390625 61.6796875 C-32.92171875 61.12539063 -33.4528125 60.57109375 -34 60 C-32.59984589 55.18052218 -30.47365695 51.1296432 -27.875 46.875 C-24.51480032 41.27892601 -21.21450747 35.65324925 -17.9921875 29.9765625 C-17.64336517 29.36255585 -17.29454285 28.74854919 -16.93515015 28.11593628 C-15.52802474 25.63756898 -14.12173029 23.15875891 -12.72113037 20.67669678 C-8.73048056 13.60708435 -4.64125121 6.66771301 0 0 Z " fill="#003C9C" transform="translate(209,287)"/>
</svg>
